# xmcd CD database file
#
# Track frame offsets:
#	150
#	12914
#	23325
#	37093
#	47360
#	56428
#	68544
#	80092
#	88259
#	102158
#	115817
#	128494
#	143516
#	152845
#	165038
#	174275
#
# Disc length: 2458 seconds
#
# Revision: 0
# Processed by: cddbd v1.5.1PL0 Copyright (c) Steve Scherf et al.
# Submitted via: CDex 1.51
#
DISCID=b2099810
DTITLE=Willie Nelson - the voice of american countryhero
DYEAR=1900
DGENRE=Country
TTITLE0=I Just Don't Understand
TTITLE1=I Feel Sorry For Him
TTITLE2=Home Is Where You're Happy
TTITLE3=Broken Promises
TTITLE4=Waiting Time
TTITLE5=Happiness Lives Next Door
TTITLE6=I'm Gonna Lose A Lot Of Teardrops
TTITLE7=Things To Remember
TTITLE8=No Tomorrow In Sight
TTITLE9=You'll Always Have Someone
TTITLE10=Any Old Arms Won't Do
TTITLE11=And So Will You My Love
TTITLE12=Right From Wrong
TTITLE13=I Can't Find The Time
TTITLE14=One Step Beyond
TTITLE15=Healing Hands Of Time
EXTD=
EXTT0=
EXTT1=
EXTT2=
EXTT3=
EXTT4=
EXTT5=
EXTT6=
EXTT7=
EXTT8=
EXTT9=
EXTT10=
EXTT11=
EXTT12=
EXTT13=
EXTT14=
EXTT15=
PLAYORDER=
